<svg
   xmlns="http://www.w3.org/2000/svg"
   width="179.36162"
   height="160.28122">
  <g transform="translate(-17.26786,-881.2015)">
    <path
       style="fill:none;stroke:black;stroke-width:2;"
       d="M 194.95944,861.44334 L 23.29892,861.55663 L 109.03106,712.83761 L 194.95944,861.44334 z "
       transform="matrix(0.862156,4.198639e-4,0.176119,0.827158,-139.3847,312.9843)" />
    <path
       style="fill:none;stroke:black"
       d="M 72.750814,954.07741 A 32.829956,32.829956 0 0 1 40.235824,959.25949"
       transform="translate(28.14558,-26.09309)" />
    <path
       style="fill:none;stroke:black"
       d="M 64.960758,898.44536 A 32.829956,32.829956 0 0 1 84.850639,928.24059 L 52.022858,928.61847 z"
       transform="translate(-20.39279,97.36701)" />
    <path
       style="fill:none;stroke:black"
       d="M 19.214363,927.43159 A 32.829956,32.829956 0 0 1 31.139102,903.28717"
       transform="translate(129.4886,97.87201)" />
    <path id="A" d="M 22.611609,1030.8243 L 20.470984,1036.629 L 24.760046,1036.629 L 22.611609,1030.8243 M 21.720984,1029.2696 L 23.510046,1029.2696 L 27.955359,1040.9337 L 26.314734,1040.9337 L 25.252234,1037.9415 L 19.994421,1037.9415 L 18.931921,1040.9337 L 17.267859,1040.9337 L 21.720984,1029.2696"/>
    <path id="B" d="M 189.93415,1035.3634 L 189.93415,1039.6369 L 192.4654,1039.6369 C 193.31436,1039.6369 193.94196,1039.4624 194.34822,1039.1134 C 194.75967,1038.7592 194.9654,1038.2202 194.9654,1037.4962 C 194.9654,1036.7671 194.75967,1036.2306 194.34822,1035.8869 C 193.94196,1035.5379 193.31436,1035.3634 192.4654,1035.3634 L 189.93415,1035.3634 M 189.93415,1030.5665 L 189.93415,1034.0822 L 192.27009,1034.0822 C 193.04092,1034.0822 193.61384,1033.9389 193.98884,1033.6525 C 194.36904,1033.3608 194.55915,1032.9181 194.55915,1032.3244 C 194.55915,1031.7358 194.36904,1031.2957 193.98884,1031.004 C 193.61384,1030.7124 193.04092,1030.5665 192.27009,1030.5665 L 189.93415,1030.5665 M 188.35603,1029.2697 L 192.38728,1029.2697 C 193.5904,1029.2697 194.51748,1029.5197 195.16853,1030.0197 C 195.81956,1030.5197 196.14508,1031.2306 196.14509,1032.1525 C 196.14508,1032.866 195.97842,1033.4337 195.64509,1033.8556 C 195.31175,1034.2775 194.82217,1034.5405 194.17634,1034.6447 C 194.95238,1034.8113 195.55394,1035.1603 195.98103,1035.6915 C 196.41331,1036.2176 196.62946,1036.8764 196.62947,1037.6681 C 196.62946,1038.7098 196.27529,1039.5145 195.56697,1040.0822 C 194.85863,1040.6499 193.85081,1040.9337 192.54353,1040.9337 L 188.35603,1040.9337 L 188.35603,1029.2697"/>
    <path id="C" d="M 83.876114,882.31085 L 83.876114,883.97491 C 83.344854,883.48013 82.777146,883.11034 82.172989,882.86554 C 81.574023,882.62076 80.936002,882.49836 80.258926,882.49835 C 78.925588,882.49836 77.904755,882.90722 77.196426,883.72491 C 76.48809,884.53742 76.133924,885.71451 76.133926,887.25616 C 76.133924,888.79263 76.48809,889.96971 77.196426,890.78741 C 77.904755,891.59992 78.925588,892.00617 80.258926,892.00616 C 80.936002,892.00617 81.574023,891.88377 82.172989,891.63898 C 82.777146,891.39419 83.344854,891.0244 83.876114,890.5296 L 83.876114,892.17804 C 83.324021,892.55304 82.738084,892.83429 82.118301,893.02179 C 81.50371,893.20929 80.852669,893.30304 80.165176,893.30304 C 78.399547,893.30304 77.008923,892.76398 75.993301,891.68585 C 74.977675,890.60252 74.469863,889.12596 74.469864,887.25616 C 74.469863,885.38117 74.977675,883.90461 75.993301,882.82648 C 77.008923,881.74316 78.399547,881.20149 80.165176,881.20148 C 80.863086,881.20149 81.519335,881.29524 82.133926,881.48273 C 82.753709,881.66503 83.334437,881.94107 83.876114,882.31085"/>
    <path id="gamma" d="M 88.889143,941.86217 L 87.113143,947.36613 L 86.633143,944.90213 C 86.153143,942.45417 85.641143,941.65417 84.569143,941.65417 C 84.089143,941.65417 83.657143,941.87817 83.401143,942.24617 C 83.049143,942.74217 82.969143,943.14217 82.937143,944.48613 L 82.937143,944.69413 L 83.289143,944.69413 C 83.321143,944.26213 83.353143,944.02213 83.417143,943.79813 C 83.593143,943.28617 83.977143,942.96617 84.441143,942.96617 C 84.873143,942.96617 85.177143,943.23817 85.481143,943.89413 C 85.865143,944.72613 86.281143,946.18213 86.441143,947.36613 L 86.633143,948.69413 C 86.585143,948.85413 86.409143,949.36613 86.105143,950.23013 C 85.785143,951.11013 85.689143,951.57413 85.689143,952.11813 C 85.689143,952.87013 86.025143,953.36613 86.537143,953.36613 C 87.193143,953.36613 87.625143,952.55013 87.625143,951.27013 C 87.625143,950.77413 87.545143,950.00613 87.353143,948.80613 L 90.601143,941.86217 L 88.889143,941.86217"/>
    <path id="alpha" d="M 71.150292,999.08669 L 70.174292,1001.8387 C 69.758292,999.90269 68.782282,998.87869 67.326292,998.87869 C 66.590292,998.87869 65.806292,999.18269 65.214292,999.69469 C 64.318292,1000.4467 63.870292,1001.5987 63.870292,1003.1827 C 63.870292,1005.7267 65.134292,1007.2947 67.214292,1007.2947 C 68.622282,1007.2947 69.662292,1006.5747 70.318292,1005.1507 C 70.398292,1005.4547 70.510292,1005.7427 70.686292,1006.1427 C 71.102292,1007.0387 71.374292,1007.2947 71.886292,1007.2947 C 72.414292,1007.2947 72.782292,1006.9587 72.990292,1006.2867 C 73.102292,1005.9187 73.150292,1005.5667 73.166292,1004.6707 L 72.750292,1004.6707 C 72.718292,1005.4867 72.414292,1006.0787 72.014292,1006.0787 C 71.486292,1006.0787 70.958292,1005.2307 70.766292,1004.1267 L 72.574292,999.08669 L 71.150292,999.08669 M 69.710292,1003.2307 L 69.342292,1004.2707 C 68.782292,1005.9027 68.142292,1006.6867 67.342292,1006.6867 C 66.846292,1006.6867 66.350292,1006.3667 66.094292,1005.9027 C 65.742292,1005.2467 65.550292,1004.2387 65.550292,1003.0867 C 65.550292,1001.9347 65.774292,1000.9587 66.190292,1000.2547 C 66.478292,999.79069 66.846292,999.56669 67.342292,999.56669 C 68.478282,999.56669 69.214292,1000.4787 69.534292,1002.3027 L 69.710292,1003.2307"/>
    <path id="beta" d="M 137.69257,1008.3061 C 137.69257,1009.1541 137.56457,1010.2581 137.40457,1010.8661 L 138.71657,1010.8661 C 138.92457,1010.4981 138.97257,1010.0661 138.97257,1008.8181 L 138.97257,1006.6421 C 139.82057,1007.2821 140.52457,1007.5221 141.45257,1007.5221 C 143.35657,1007.5221 144.66857,1006.1141 144.66857,1004.0501 C 144.66857,1002.3381 143.82057,1001.1381 142.06057,1000.3862 C 143.27657,999.73022 143.85257,998.99422 143.85257,998.08222 C 143.85257,996.65821 142.42857,995.47421 140.71657,995.47421 C 138.98857,995.47421 137.69257,996.61021 137.69257,998.13022 L 137.69257,1008.3061 M 138.97257,997.97022 C 138.97257,996.85022 139.64457,996.06621 140.58857,996.06621 C 141.59657,996.06621 142.31657,996.99422 142.31657,998.27422 C 142.31657,999.12222 141.86857,1000.0342 141.45257,1000.0342 C 141.40457,1000.0342 141.35657,1000.0342 141.10057,999.97022 C 140.86057,999.92222 140.73257,999.90622 140.60457,999.90622 C 140.22057,999.90622 139.91657,1000.1622 139.91657,1000.4662 C 139.91657,1000.7702 140.20457,1000.9622 140.62057,1000.9622 C 140.71657,1000.9622 140.79657,1000.9462 140.95657,1000.9142 C 141.14857,1000.8662 141.30857,1000.8502 141.43657,1000.8502 C 141.64457,1000.8502 141.75657,1000.8822 141.85257,1000.9782 C 142.57257,1001.6501 143.00457,1002.8661 143.00457,1004.1781 C 143.00457,1005.7781 142.30057,1006.7221 141.11657,1006.7221 C 140.31657,1006.7221 139.51657,1006.3541 138.97257,1005.7301 L 138.97257,997.97022"/>
    <path id="a" d="M 138.69866,948.67802 C 137.5372,948.67803 136.73251,948.81084 136.2846,949.07646 C 135.83668,949.34209 135.61272,949.79521 135.61272,950.43583 C 135.61272,950.94625 135.77939,951.3525 136.11272,951.65458 C 136.45126,951.95146 136.9096,952.0999 137.48772,952.0999 C 138.28459,952.0999 138.92261,951.81865 139.40179,951.25615 C 139.88616,950.68844 140.12834,949.93584 140.12835,948.99833 L 140.12835,948.67802 L 138.69866,948.67802 M 141.56585,948.08427 L 141.56585,953.07646 L 140.12835,953.07646 L 140.12835,951.74833 C 139.80022,952.27958 139.39136,952.67281 138.90179,952.92802 C 138.4122,953.17802 137.81324,953.30302 137.10491,953.30302 C 136.20908,953.30302 135.49553,953.05302 134.96429,952.55302 C 134.43824,952.04781 134.17522,951.37333 134.17522,950.52958 C 134.17522,949.54521 134.50335,948.80302 135.1596,948.30302 C 135.82106,947.80303 136.80543,947.55303 138.11272,947.55302 L 140.12835,947.55302 L 140.12835,947.4124 C 140.12834,946.75094 139.90959,946.24053 139.4721,945.88115 C 139.0398,945.51657 138.43043,945.33428 137.64397,945.33427 C 137.14397,945.33428 136.65699,945.39417 136.18304,945.51396 C 135.70908,945.63376 135.25335,945.81344 134.81585,946.05302 L 134.81585,944.7249 C 135.34189,944.52178 135.85231,944.37074 136.3471,944.27177 C 136.84189,944.16761 137.32366,944.11553 137.79241,944.11552 C 139.05803,944.11553 140.00334,944.44365 140.62835,945.0999 C 141.25334,945.75615 141.56584,946.75094 141.56585,948.08427"/>
    <path id="b" d="M 44.164572,952.23135 C 45.028571,950.93535 45.684572,950.39135 46.372572,950.39135 C 47.364571,950.39135 47.972572,951.54335 47.972572,953.39935 C 47.972572,955.62334 47.22057,956.75935 45.780572,956.75935 C 45.412572,956.75935 44.932571,956.69535 44.164572,956.55135 L 44.164572,952.23135 M 44.164572,945.38335 L 42.628572,945.38335 L 42.628572,957.81535 L 44.164572,957.71935 C 44.708571,957.84735 45.140572,957.91135 45.636572,957.91135 C 48.196569,957.91135 49.636572,956.23134 49.636572,953.23935 C 49.636572,950.71135 48.46857,949.04735 46.692572,949.04735 C 45.604573,949.04735 44.852571,949.57535 44.164572,950.83935 L 44.164572,945.38335"/>
    <path id="c" d="M 107.94629,1038.2781 C 107.05029,1038.6461 106.39429,1038.8061 105.73829,1038.8061 C 104.07429,1038.8061 103.11429,1037.6541 103.11429,1035.6221 C 103.11429,1033.4781 104.02629,1032.3741 105.80229,1032.3741 C 106.34629,1032.3741 106.92229,1032.4861 107.85029,1032.7581 L 107.85029,1031.4781 C 106.95429,1031.2861 106.18629,1031.1901 105.53029,1031.1901 C 102.92229,1031.1901 101.38629,1032.8221 101.38629,1035.6221 C 101.38629,1038.2941 102.93829,1040.0541 105.27429,1040.0541 C 106.13829,1040.0541 106.98629,1039.9101 107.94629,1039.6061 L 107.94629,1038.2781"/>
  </g>
</svg>
